<?xml version="1.0" encoding="utf-8"?>
<!-- Svg Vector Icons : http://www.onlinewebfonts.com/icon -->
<!DOCTYPE svg PUBLIC "-//W3C//DTD SVG 1.1//EN" "http://www.w3.org/Graphics/SVG/1.1/DTD/svg11.dtd">
<svg version="1.1" xmlns="http://www.w3.org/2000/svg" xmlns:xlink="http://www.w3.org/1999/xlink" x="0px" y="0px" viewBox="0 0 1000 1000" enable-background="new 0 0 1000 1000" xml:space="preserve">
<metadata> Svg Vector Icons : http://www.onlinewebfonts.com/icon </metadata>
<g><g><path d="M508.6,108.3c0,58.5,44.2,98.2,98.7,98.2s98.8-39.7,98.8-98.2c0-58.6-44.2-98.3-98.8-98.3C552.8,10,508.6,49.7,508.6,108.3L508.6,108.3z M294.7,443.5c0,11.6-2.1,40.4,0.3,57.8l86.2-103.7c17.8-19.5,38.5-33.2,49-29.5c10.6,3.7,16.3,16.1,12.9,27.6L300.4,868.2C284,923.4,315.1,977.6,390.8,990c110.9,0,176.8-75,241.6-172.3c0-11.6,3.9-42.2,1.5-59.6l-86.2,103.7c-17.9,19.5-40,33.2-50.6,29.6c-9.7-3.4-15.4-14.3-13.5-25.1l143.7-474.7c12-60.3-20.5-115.2-89.1-122.2C465.9,269.5,359.5,346.3,294.7,443.5L294.7,443.5z"/></g></g>
</svg>